<svg xmlns="http://www.w3.org/2000/svg" viewBox="1938 6939 25825 7122" shape-rendering="geometricPrecision" text-rendering="geometricPrecision" image-rendering="optimizeQuality" fill-rule="evenodd" clip-rule="evenodd"><defs><style>.fil0{fill:#2b2a29;fill-rule:nonzero}</style></defs><g id="Слой_x0020_1"><g id="_1750795520"><path class="fil0" d="M15364 10127c-240-1017-1135-1726-2176-1726-1234 0-2238 1009-2238 2248 0 1240 1004 2248 2238 2248 895 0 1696-531 2051-1354h-550c-321 547-899 883-1502 860-1561-58-1723-1519-1723-1519h3447c185 0 378 0 460-140 114-194-7-614-8-618zm-3892 263s208-1495 1716-1495c1518 0 1727 1495 1727 1495h-3443zm5721 2497c571 0 1371-378 1371-1219 0-235-88-464-249-645-221-248-958-650-1189-755-588-268-690-467-690-737-2-169 51-310 158-417 253-254 823-252 823-252 483 3 843 158 965 219v-447c-464-215-961-218-966-218-525 0-923 136-1183 404-317 327-310 700-310 703 0 554 439 889 723 1017 1006 453 1403 697 1416 1124 13 416-266 758-867 758-273 0-812-71-1139-261v488c402 258 1137 237 1137 237zm3610-106v-496h-622c-92 0-307-39-307-406V8973h905v-494h-905V7473h-540v4407c0 892 822 902 858 902h611zm1723-3809h541v-494h-608c-572 0-849 310-849 948v3355h540V9429c0-303 127-456 377-456zm2999-570c-1234 0-2237 1009-2237 2248 0 1240 1003 2248 2237 2248s2238-1009 2238-2248c0-1240-1004-2248-2238-2248zm0 4003c-963 0-1745-787-1745-1754s782-1754 1745-1754 1746 787 1746 1754-783 1754-1746 1754zM5482 14061c-1954 0-3544-1598-3544-3561 0-1964 1590-3561 3544-3561s3544 1597 3544 3561-1590 3561-3544 3561zm0-6849c-1804 0-3272 1475-3272 3288s1468 3288 3272 3288 3272-1475 3272-3288-1468-3288-3272-3288z"/><path class="fil0" d="M6860 12129c-47-352-278-434-403-409-68 13-156 69-222 118 87-27 443 79 351 777-24 181-88 297-158 373-133 12-334-21-480-280-93-166-172-432-39-758 43-105 124-207 271-300 0 0-171 45-297 155-176 152-340 396-273 769 83 464 417 618 709 528 60-17 135-47 227-106 223-144 367-469 313-867zm-2268-1779c551-54 716-432 716-432-254 244-743 219-1143 263 13-163 31-299 55-366 70-204 124-225 234-287 0 0-208 86-387 244-128 114-176 279-200 469-32 11-63 22-92 37-388 193-486 688-486 688 111-326 314-464 561-529-16 250-169 1210 386 1411 517 187 855-171 929-309 0 0-197 193-556 142-250-36-470-239-473-648-2-190 3-428 15-646 142-14 291-21 441-35z"/><path class="fil0" d="M6906 11117c-794-84-921-65-1139 15-119 43-258 172-352 269-8-87-23-172-53-251-107-288-287-242-400-192-98 44-302 284-302 284 98-93 154-136 264-136 112 0 258 198 179 717-74 482 80 560 80 560 129 16 425-71 425-71-172 31-215-66-224-170-12-123 55-427 34-718 343-265 517-62 1509-65 1094-3 1296-563 1296-563-172 217-412 414-1316 319z"/><path class="fil0" d="M6271 9672c-222-176-340-342-270-502 44-19 96-32 132-8 77 50 34 115 18 128 0 0 233-18 202-190-13-69-145-156-267-53-32 27-60 54-84 78-96 88-223 225-235 341-17 153 146 314 532 553s154 598-57 680c-265 103-731 154-1072-16-621-309-435-991-74-1094 0 0-168 6-297 62-218 94-444 338-281 787 200 546 1005 468 1337 405 195-37 346-88 500-180 131-50 336-160 410-371 111-318-282-450-494-619z"/><path class="fil0" d="M5476 9715c-346-242-488-559-535-854 292 45 545 51 810-66 173-77 282-225 324-324 252-586-338-877-731-734-473 172-606 692-635 812-840-119-1216 174-1331 277-125 111-344 433-344 433s383-464 958-491c251-12 474 16 680 50-1 156 17 1303 1262 1237 715-38 816-676 816-676-269 762-1133 437-1276 336zm-470-1653c139-106 328-171 542-127 293 60 429 305 424 495-2 77-17 137-39 184-177 110-756 22-1011-28 3-238 56-435 84-524z"/></g></g></svg>